<?xml version="1.0" encoding="us-ascii" standalone="no"?><svg xmlns="http://www.w3.org/2000/svg" xmlns:xlink="http://www.w3.org/1999/xlink" contentStyleType="text/css" height="1750px" preserveAspectRatio="none" style="width:1385px;height:1750px;background:#FFFFFF;" version="1.1" viewBox="0 0 1385 1750" width="1385px" zoomAndPan="magnify"><defs/><g><text fill="#000000" font-family="sans-serif" font-size="14" font-weight="bold" lengthAdjust="spacing" textLength="184" x="596.5" y="29.9659">&#20351;&#29992;nonce-verify&#30340;&#19994;&#21153;&#27969;&#31243;</text><rect fill="#DDDDDD" height="1698.2006" style="stroke:#181818;stroke-width:0.5;" width="523" x="288" y="46.0679"/><text fill="#000000" font-family="sans-serif" font-size="13" font-weight="bold" lengthAdjust="spacing" textLength="65" x="517" y="59.9649">&#31354;&#25237;&#39033;&#30446;&#26041;</text><rect fill="#DDDDDD" height="1698.2006" style="stroke:#181818;stroke-width:0.5;" width="369.5" x="841.5" y="46.0679"/><text fill="#000000" font-family="sans-serif" font-size="13" font-weight="bold" lengthAdjust="spacing" textLength="81" x="985.75" y="59.9649">NonceVerify</text><rect fill="#FFFFFF" height="28" style="stroke:#181818;stroke-width:1.0;" width="10" x="324.5" y="510.902"/><rect fill="#FFFFFF" height="28" style="stroke:#181818;stroke-width:1.0;" width="10" x="324.5" y="1055.1983"/><rect fill="#FFFFFF" height="31.706" style="stroke:#181818;stroke-width:1.0;" width="10" x="324.5" y="1167.6103"/><rect fill="#FFFFFF" height="95.118" style="stroke:#181818;stroke-width:1.0;" width="10" x="592.5" y="376.0779"/><rect fill="#FFFFFF" height="31.706" style="stroke:#181818;stroke-width:1.0;" width="10" x="751.5" y="407.784"/><rect fill="#FFFFFF" height="312.0602" style="stroke:#181818;stroke-width:1.0;" width="10" x="751.5" y="1231.0223"/><rect fill="#FFFFFF" height="28" style="stroke:#181818;stroke-width:1.0;" width="10" x="756.5" y="1476.3765"/><rect fill="#FFFFFF" height="95.118" style="stroke:#181818;stroke-width:1.0;" width="10" x="903.5" y="203.5479"/><rect fill="#FFFFFF" height="158.5301" style="stroke:#181818;stroke-width:1.0;" width="10" x="903.5" y="595.314"/><rect fill="#FFFFFF" height="184.2361" style="stroke:#181818;stroke-width:1.0;" width="10" x="903.5" y="831.2562"/><rect fill="#FFFFFF" height="31.706" style="stroke:#181818;stroke-width:1.0;" width="10" x="1140.5" y="235.2539"/><rect fill="#FFFFFF" height="95.118" style="stroke:#181818;stroke-width:1.0;" width="10" x="1140.5" y="627.0201"/><rect fill="#FFFFFF" height="31.706" style="stroke:#181818;stroke-width:1.0;" width="10" x="1140.5" y="862.9622"/><rect fill="#FFFFFF" height="173.9421" style="stroke:#181818;stroke-width:1.0;" width="10" x="1140.5" y="1262.7284"/><line style="stroke:#181818;stroke-width:0.5;stroke-dasharray:5.0,5.0;" x1="48" x2="48" y1="124.1358" y2="1662.2006"/><line style="stroke:#181818;stroke-width:0.5;stroke-dasharray:5.0,5.0;" x1="185" x2="185" y1="124.1358" y2="1662.2006"/><line style="stroke:#181818;stroke-width:0.5;stroke-dasharray:5.0,5.0;" x1="329" x2="329" y1="124.1358" y2="1662.2006"/><line style="stroke:#181818;stroke-width:0.5;stroke-dasharray:5.0,5.0;" x1="597.5" x2="597.5" y1="124.1358" y2="1662.2006"/><line style="stroke:#181818;stroke-width:0.5;stroke-dasharray:5.0,5.0;" x1="756" x2="756" y1="124.1358" y2="1662.2006"/><line style="stroke:#181818;stroke-width:0.5;stroke-dasharray:5.0,5.0;" x1="908.5" x2="908.5" y1="124.1358" y2="1662.2006"/><line style="stroke:#181818;stroke-width:0.5;stroke-dasharray:5.0,5.0;" x1="1145" x2="1145" y1="124.1358" y2="1662.2006"/><text fill="#000000" font-family="sans-serif" font-size="14" lengthAdjust="spacing" textLength="56" x="17" y="120.0339">&#31354;&#25237;&#29992;&#25143;</text><ellipse cx="48" cy="53.5679" fill="#E2E2F0" rx="8" ry="8" style="stroke:#181818;stroke-width:0.5;"/><path d="M48,61.5679 L48,88.5679 M35,69.5679 L61,69.5679 M48,88.5679 L35,103.5679 M48,88.5679 L61,103.5679 " fill="none" style="stroke:#181818;stroke-width:0.5;"/><text fill="#000000" font-family="sans-serif" font-size="14" lengthAdjust="spacing" textLength="56" x="17" y="1676.1665">&#31354;&#25237;&#29992;&#25143;</text><ellipse cx="48" cy="1688.7685" fill="#E2E2F0" rx="8" ry="8" style="stroke:#181818;stroke-width:0.5;"/><path d="M48,1696.7685 L48,1723.7685 M35,1704.7685 L61,1704.7685 M48,1723.7685 L35,1738.7685 M48,1723.7685 L61,1738.7685 " fill="none" style="stroke:#181818;stroke-width:0.5;"/><rect fill="#E2E2F0" height="33.0679" rx="2.5" ry="2.5" style="stroke:#181818;stroke-width:0.5;" width="193" x="89" y="90.0679"/><text fill="#000000" font-family="sans-serif" font-size="14" lengthAdjust="spacing" textLength="179" x="96" y="112.0339">&#24320;&#21457;&#32773;&#65288;NonceVerify&#31649;&#29702;&#65289;</text><rect fill="#E2E2F0" height="33.0679" rx="2.5" ry="2.5" style="stroke:#181818;stroke-width:0.5;" width="193" x="89" y="1661.2006"/><text fill="#000000" font-family="sans-serif" font-size="14" lengthAdjust="spacing" textLength="179" x="96" y="1683.1665">&#24320;&#21457;&#32773;&#65288;NonceVerify&#31649;&#29702;&#65289;</text><rect fill="#E2E2F0" height="33.0679" rx="2.5" ry="2.5" style="stroke:#181818;stroke-width:0.5;" width="75" x="292" y="90.0679"/><text fill="#000000" font-family="sans-serif" font-size="14" lengthAdjust="spacing" textLength="61" x="299" y="112.0339">&#31354;&#25237;-&#21518;&#31471;</text><rect fill="#E2E2F0" height="33.0679" rx="2.5" ry="2.5" style="stroke:#181818;stroke-width:0.5;" width="75" x="292" y="1661.2006"/><text fill="#000000" font-family="sans-serif" font-size="14" lengthAdjust="spacing" textLength="61" x="299" y="1683.1665">&#31354;&#25237;-&#21518;&#31471;</text><rect fill="#E2E2F0" height="33.0679" rx="2.5" ry="2.5" style="stroke:#181818;stroke-width:0.5;" width="102" x="546.5" y="90.0679"/><text fill="#000000" font-family="sans-serif" font-size="14" lengthAdjust="spacing" textLength="88" x="553.5" y="112.0339">&#31354;&#25237;&#21512;&#32422;-SDK</text><rect fill="#E2E2F0" height="33.0679" rx="2.5" ry="2.5" style="stroke:#181818;stroke-width:0.5;" width="102" x="546.5" y="1661.2006"/><text fill="#000000" font-family="sans-serif" font-size="14" lengthAdjust="spacing" textLength="88" x="553.5" y="1683.1665">&#31354;&#25237;&#21512;&#32422;-SDK</text><rect fill="#E2E2F0" height="52.1358" rx="2.5" ry="2.5" style="stroke:#181818;stroke-width:0.5;" width="101" x="706" y="71"/><text fill="#000000" font-family="sans-serif" font-size="14" lengthAdjust="spacing" textLength="84" x="714.5" y="92.9659">&#38142;&#19978;&#31354;&#25237;&#21512;&#32422;</text><text fill="#000000" font-family="sans-serif" font-size="14" lengthAdjust="spacing" textLength="87" x="713" y="112.0339">(Airdrop&#21512;&#32422;)</text><rect fill="#E2E2F0" height="52.1358" rx="2.5" ry="2.5" style="stroke:#181818;stroke-width:0.5;" width="101" x="706" y="1661.2006"/><text fill="#000000" font-family="sans-serif" font-size="14" lengthAdjust="spacing" textLength="84" x="714.5" y="1683.1665">&#38142;&#19978;&#31354;&#25237;&#21512;&#32422;</text><text fill="#000000" font-family="sans-serif" font-size="14" lengthAdjust="spacing" textLength="87" x="713" y="1702.2344">(Airdrop&#21512;&#32422;)</text><rect fill="#E2E2F0" height="33.0679" rx="2.5" ry="2.5" style="stroke:#181818;stroke-width:0.5;" width="126" x="845.5" y="90.0679"/><text fill="#000000" font-family="sans-serif" font-size="14" lengthAdjust="spacing" textLength="112" x="852.5" y="112.0339">NonceVerify SDK</text><rect fill="#E2E2F0" height="33.0679" rx="2.5" ry="2.5" style="stroke:#181818;stroke-width:0.5;" width="126" x="845.5" y="1661.2006"/><text fill="#000000" font-family="sans-serif" font-size="14" lengthAdjust="spacing" textLength="112" x="852.5" y="1683.1665">NonceVerify SDK</text><rect fill="#E2E2F0" height="33.0679" rx="2.5" ry="2.5" style="stroke:#181818;stroke-width:0.5;" width="123" x="1084" y="90.0679"/><text fill="#000000" font-family="sans-serif" font-size="14" lengthAdjust="spacing" textLength="109" x="1091" y="112.0339">NonceVerify&#21512;&#32422;</text><rect fill="#E2E2F0" height="33.0679" rx="2.5" ry="2.5" style="stroke:#181818;stroke-width:0.5;" width="123" x="1084" y="1661.2006"/><text fill="#000000" font-family="sans-serif" font-size="14" lengthAdjust="spacing" textLength="109" x="1091" y="1683.1665">NonceVerify&#21512;&#32422;</text><rect fill="#FFFFFF" height="28" style="stroke:#181818;stroke-width:1.0;" width="10" x="324.5" y="510.902"/><rect fill="#FFFFFF" height="28" style="stroke:#181818;stroke-width:1.0;" width="10" x="324.5" y="1055.1983"/><rect fill="#FFFFFF" height="31.706" style="stroke:#181818;stroke-width:1.0;" width="10" x="324.5" y="1167.6103"/><rect fill="#FFFFFF" height="95.118" style="stroke:#181818;stroke-width:1.0;" width="10" x="592.5" y="376.0779"/><rect fill="#FFFFFF" height="31.706" style="stroke:#181818;stroke-width:1.0;" width="10" x="751.5" y="407.784"/><rect fill="#FFFFFF" height="312.0602" style="stroke:#181818;stroke-width:1.0;" width="10" x="751.5" y="1231.0223"/><rect fill="#FFFFFF" height="28" style="stroke:#181818;stroke-width:1.0;" width="10" x="756.5" y="1476.3765"/><rect fill="#FFFFFF" height="95.118" style="stroke:#181818;stroke-width:1.0;" width="10" x="903.5" y="203.5479"/><rect fill="#FFFFFF" height="158.5301" style="stroke:#181818;stroke-width:1.0;" width="10" x="903.5" y="595.314"/><rect fill="#FFFFFF" height="184.2361" style="stroke:#181818;stroke-width:1.0;" width="10" x="903.5" y="831.2562"/><rect fill="#FFFFFF" height="31.706" style="stroke:#181818;stroke-width:1.0;" width="10" x="1140.5" y="235.2539"/><rect fill="#FFFFFF" height="95.118" style="stroke:#181818;stroke-width:1.0;" width="10" x="1140.5" y="627.0201"/><rect fill="#FFFFFF" height="31.706" style="stroke:#181818;stroke-width:1.0;" width="10" x="1140.5" y="862.9622"/><rect fill="#FFFFFF" height="173.9421" style="stroke:#181818;stroke-width:1.0;" width="10" x="1140.5" y="1262.7284"/><rect fill="#EEEEEE" height="3" style="stroke:#EEEEEE;stroke-width:1.0;" width="1378" x="0" y="155.9888"/><line style="stroke:#000000;stroke-width:1.0;" x1="0" x2="1378" y1="155.9888" y2="155.9888"/><line style="stroke:#000000;stroke-width:1.0;" x1="0" x2="1378" y1="158.9888" y2="158.9888"/><rect fill="#EEEEEE" height="25.706" style="stroke:#000000;stroke-width:2.0;" width="108" x="635" y="144.1358"/><text fill="#000000" font-family="sans-serif" font-size="13" font-weight="bold" lengthAdjust="spacing" textLength="91" x="641" y="162.0328">&#37096;&#32626;&#21518;&#30340;&#21021;&#22987;&#21270;</text><polygon fill="#181818" points="891.5,199.5479,901.5,203.5479,891.5,207.5479,895.5,203.5479" style="stroke:#181818;stroke-width:1.0;"/><line style="stroke:#181818;stroke-width:1.0;" x1="185.5" x2="897.5" y1="203.5479" y2="203.5479"/><text fill="#000000" font-family="sans-serif" font-size="13" font-weight="bold" lengthAdjust="spacing" textLength="7" x="192.5" y="197.7389">1</text><text fill="#000000" font-family="sans-serif" font-size="13" lengthAdjust="spacing" textLength="149" x="203.5" y="197.7389">&#21019;&#24314; nonce-verify-project</text><polygon fill="#181818" points="1128.5,231.2539,1138.5,235.2539,1128.5,239.2539,1132.5,235.2539" style="stroke:#181818;stroke-width:1.0;"/><line style="stroke:#181818;stroke-width:1.0;" x1="913.5" x2="1134.5" y1="235.2539" y2="235.2539"/><text fill="#000000" font-family="sans-serif" font-size="13" font-weight="bold" lengthAdjust="spacing" textLength="7" x="920.5" y="229.4449">2</text><text fill="#000000" font-family="sans-serif" font-size="13" lengthAdjust="spacing" textLength="149" x="931.5" y="229.4449">&#21019;&#24314; nonce-verify-project</text><polygon fill="#181818" points="924.5,262.9599,914.5,266.9599,924.5,270.9599,920.5,266.9599" style="stroke:#181818;stroke-width:1.0;"/><line style="stroke:#181818;stroke-width:1.0;stroke-dasharray:2.0,2.0;" x1="918.5" x2="1144.5" y1="266.9599" y2="266.9599"/><text fill="#000000" font-family="sans-serif" font-size="13" font-weight="bold" lengthAdjust="spacing" textLength="7" x="930.5" y="261.1509">3</text><text fill="#000000" font-family="sans-serif" font-size="13" lengthAdjust="spacing" textLength="3" x="941.5" y="261.1509">&#160;</text><polygon fill="#181818" points="196.5,294.6659,186.5,298.6659,196.5,302.6659,192.5,298.6659" style="stroke:#181818;stroke-width:1.0;"/><line style="stroke:#181818;stroke-width:1.0;stroke-dasharray:2.0,2.0;" x1="190.5" x2="907.5" y1="298.6659" y2="298.6659"/><text fill="#000000" font-family="sans-serif" font-size="13" font-weight="bold" lengthAdjust="spacing" textLength="7" x="202.5" y="292.8569">4</text><text fill="#000000" font-family="sans-serif" font-size="13" lengthAdjust="spacing" textLength="3" x="213.5" y="292.8569">&#160;</text><rect fill="#EEEEEE" height="3" style="stroke:#EEEEEE;stroke-width:1.0;" width="1378" x="0" y="328.5189"/><line style="stroke:#000000;stroke-width:1.0;" x1="0" x2="1378" y1="328.5189" y2="328.5189"/><line style="stroke:#000000;stroke-width:1.0;" x1="0" x2="1378" y1="331.5189" y2="331.5189"/><rect fill="#EEEEEE" height="25.706" style="stroke:#000000;stroke-width:2.0;" width="426" x="476" y="316.6659"/><text fill="#000000" font-family="sans-serif" font-size="13" font-weight="bold" lengthAdjust="spacing" textLength="409" x="482" y="334.5629">&#31354;&#25237;&#39033;&#30446;&#26041;&#21019;&#24314; NonceVerify &#30340; BusinessProject, &#36827;&#34892;&#31354;&#25237;&#21021;&#22987;&#20934;&#22791;</text><polygon fill="#181818" points="580.5,372.0779,590.5,376.0779,580.5,380.0779,584.5,376.0779" style="stroke:#181818;stroke-width:1.0;"/><line style="stroke:#181818;stroke-width:1.0;" x1="329.5" x2="586.5" y1="376.0779" y2="376.0779"/><text fill="#000000" font-family="sans-serif" font-size="13" font-weight="bold" lengthAdjust="spacing" textLength="7" x="336.5" y="370.2689">1</text><text fill="#000000" font-family="sans-serif" font-size="13" lengthAdjust="spacing" textLength="119" x="347.5" y="370.2689">&#21019;&#24314; airdrop-project</text><polygon fill="#181818" points="739.5,403.784,749.5,407.784,739.5,411.784,743.5,407.784" style="stroke:#181818;stroke-width:1.0;"/><line style="stroke:#181818;stroke-width:1.0;" x1="602.5" x2="745.5" y1="407.784" y2="407.784"/><text fill="#000000" font-family="sans-serif" font-size="13" font-weight="bold" lengthAdjust="spacing" textLength="7" x="609.5" y="401.975">2</text><text fill="#000000" font-family="sans-serif" font-size="13" lengthAdjust="spacing" textLength="119" x="620.5" y="401.975">&#21019;&#24314; airdrop-project</text><polygon fill="#181818" points="613.5,435.49,603.5,439.49,613.5,443.49,609.5,439.49" style="stroke:#181818;stroke-width:1.0;"/><line style="stroke:#181818;stroke-width:1.0;stroke-dasharray:2.0,2.0;" x1="607.5" x2="755.5" y1="439.49" y2="439.49"/><text fill="#000000" font-family="sans-serif" font-size="13" font-weight="bold" lengthAdjust="spacing" textLength="7" x="619.5" y="433.681">3</text><text fill="#000000" font-family="sans-serif" font-size="13" lengthAdjust="spacing" textLength="3" x="630.5" y="433.681">&#160;</text><polygon fill="#181818" points="340.5,467.196,330.5,471.196,340.5,475.196,336.5,471.196" style="stroke:#181818;stroke-width:1.0;"/><line style="stroke:#181818;stroke-width:1.0;stroke-dasharray:2.0,2.0;" x1="334.5" x2="596.5" y1="471.196" y2="471.196"/><text fill="#000000" font-family="sans-serif" font-size="13" font-weight="bold" lengthAdjust="spacing" textLength="7" x="346.5" y="465.387">4</text><text fill="#000000" font-family="sans-serif" font-size="13" lengthAdjust="spacing" textLength="3" x="357.5" y="465.387">&#160;</text><line style="stroke:#181818;stroke-width:1.0;" x1="334.5" x2="376.5" y1="502.902" y2="502.902"/><line style="stroke:#181818;stroke-width:1.0;" x1="376.5" x2="376.5" y1="502.902" y2="515.902"/><line style="stroke:#181818;stroke-width:1.0;" x1="335.5" x2="376.5" y1="515.902" y2="515.902"/><polygon fill="#181818" points="345.5,511.902,335.5,515.902,345.5,519.902,341.5,515.902" style="stroke:#181818;stroke-width:1.0;"/><text fill="#000000" font-family="sans-serif" font-size="13" font-weight="bold" lengthAdjust="spacing" textLength="7" x="341.5" y="497.093">5</text><text fill="#000000" font-family="sans-serif" font-size="13" lengthAdjust="spacing" textLength="243" x="352.5" y="497.093">&#35745;&#31639; nonce-business-project &#30340; authority</text><polygon fill="#181818" points="891.5,591.314,901.5,595.314,891.5,599.314,895.5,595.314" style="stroke:#181818;stroke-width:1.0;"/><line style="stroke:#181818;stroke-width:1.0;" x1="329.5" x2="897.5" y1="595.314" y2="595.314"/><text fill="#000000" font-family="sans-serif" font-size="13" font-weight="bold" lengthAdjust="spacing" textLength="7" x="336.5" y="580.652">6</text><text fill="#000000" font-family="sans-serif" font-size="13" lengthAdjust="spacing" textLength="307" x="347.5" y="571.799">&#27880;&#20876; nonce-business-project &#21040; nonce-verify-project</text><text fill="#000000" font-family="sans-serif" font-size="13" lengthAdjust="spacing" textLength="111" x="350.5" y="589.505">&#38656;&#35201;&#22635;&#20837; authority</text><polygon fill="#181818" points="1128.5,623.0201,1138.5,627.0201,1128.5,631.0201,1132.5,627.0201" style="stroke:#181818;stroke-width:1.0;"/><line style="stroke:#181818;stroke-width:1.0;" x1="913.5" x2="1134.5" y1="627.0201" y2="627.0201"/><text fill="#000000" font-family="sans-serif" font-size="13" font-weight="bold" lengthAdjust="spacing" textLength="7" x="920.5" y="621.2111">7</text><text fill="#000000" font-family="sans-serif" font-size="13" lengthAdjust="spacing" textLength="26" x="931.5" y="621.2111">&#27880;&#20876;</text><path d="M1007,640.0201 L1007,693.0201 L1283,693.0201 L1283,650.0201 L1273,640.0201 L1007,640.0201 " fill="#FEFFDD" style="stroke:#181818;stroke-width:0.5;"/><path d="M1273,640.0201 L1273,650.0201 L1283,650.0201 L1273,640.0201 " fill="#FEFFDD" style="stroke:#181818;stroke-width:0.5;"/><text fill="#000000" font-family="sans-serif" font-size="13" lengthAdjust="spacing" textLength="245" x="1013" y="658.9171">&#26681;&#25454;NonceVerify&#30340;&#37197;&#32622;&#25511;&#21046;&#65292;&#26159;&#21542;&#25910;&#36153;&#29992;;</text><line style="stroke:#181818;stroke-width:1.0;stroke-dasharray:1.0,2.0;" x1="1008" x2="1282" y1="662.7261" y2="662.7261"/><text fill="#000000" font-family="sans-serif" font-size="13" lengthAdjust="spacing" textLength="255" x="1013" y="680.6231">&#26681;&#25454;NonceVerify&#30340;&#37197;&#32622;&#25511;&#21046;&#65292;&#26159;&#21542;&#38656;&#35201;&#25480;&#26435;</text><polygon fill="#181818" points="924.5,718.1381,914.5,722.1381,924.5,726.1381,920.5,722.1381" style="stroke:#181818;stroke-width:1.0;"/><line style="stroke:#181818;stroke-width:1.0;stroke-dasharray:2.0,2.0;" x1="918.5" x2="1144.5" y1="722.1381" y2="722.1381"/><text fill="#000000" font-family="sans-serif" font-size="13" font-weight="bold" lengthAdjust="spacing" textLength="7" x="930.5" y="716.3291">8</text><text fill="#000000" font-family="sans-serif" font-size="13" lengthAdjust="spacing" textLength="3" x="941.5" y="716.3291">&#160;</text><polygon fill="#181818" points="340.5,749.8441,330.5,753.8441,340.5,757.8441,336.5,753.8441" style="stroke:#181818;stroke-width:1.0;"/><line style="stroke:#181818;stroke-width:1.0;stroke-dasharray:2.0,2.0;" x1="334.5" x2="907.5" y1="753.8441" y2="753.8441"/><text fill="#000000" font-family="sans-serif" font-size="13" font-weight="bold" lengthAdjust="spacing" textLength="7" x="346.5" y="748.0351">9</text><text fill="#000000" font-family="sans-serif" font-size="13" lengthAdjust="spacing" textLength="3" x="357.5" y="748.0351">&#160;</text><rect fill="#EEEEEE" height="3" style="stroke:#EEEEEE;stroke-width:1.0;" width="1378" x="0" y="783.6971"/><line style="stroke:#000000;stroke-width:1.0;" x1="0" x2="1378" y1="783.6971" y2="783.6971"/><line style="stroke:#000000;stroke-width:1.0;" x1="0" x2="1378" y1="786.6971" y2="786.6971"/><rect fill="#EEEEEE" height="25.706" style="stroke:#000000;stroke-width:2.0;" width="132" x="623" y="771.8441"/><text fill="#000000" font-family="sans-serif" font-size="13" font-weight="bold" lengthAdjust="spacing" textLength="115" x="629" y="789.7411">&#29983;&#25104; offchain-sign</text><polygon fill="#181818" points="891.5,827.2562,901.5,831.2562,891.5,835.2562,895.5,831.2562" style="stroke:#181818;stroke-width:1.0;"/><line style="stroke:#181818;stroke-width:1.0;" x1="329.5" x2="897.5" y1="831.2562" y2="831.2562"/><text fill="#000000" font-family="sans-serif" font-size="13" font-weight="bold" lengthAdjust="spacing" textLength="7" x="336.5" y="825.4472">1</text><text fill="#000000" font-family="sans-serif" font-size="13" lengthAdjust="spacing" textLength="243" x="347.5" y="825.4472">&#35835;&#21462;&#29992;&#25143;nonce(&#39033;&#30446;&#21512;&#32422;&#22320;&#22336;&#65292; &#29992;&#25143;&#36134;&#25143;)</text><polygon fill="#181818" points="1128.5,858.9622,1138.5,862.9622,1128.5,866.9622,1132.5,862.9622" style="stroke:#181818;stroke-width:1.0;"/><line style="stroke:#181818;stroke-width:1.0;" x1="913.5" x2="1134.5" y1="862.9622" y2="862.9622"/><text fill="#000000" font-family="sans-serif" font-size="13" font-weight="bold" lengthAdjust="spacing" textLength="7" x="920.5" y="857.1532">2</text><text fill="#000000" font-family="sans-serif" font-size="13" lengthAdjust="spacing" textLength="104" x="931.5" y="857.1532">&#35835;&#21462;&#29992;&#25143;&#36134;&#25143;&#25968;&#25454;</text><polygon fill="#181818" points="924.5,890.6682,914.5,894.6682,924.5,898.6682,920.5,894.6682" style="stroke:#181818;stroke-width:1.0;"/><line style="stroke:#181818;stroke-width:1.0;stroke-dasharray:2.0,2.0;" x1="918.5" x2="1144.5" y1="894.6682" y2="894.6682"/><text fill="#000000" font-family="sans-serif" font-size="13" font-weight="bold" lengthAdjust="spacing" textLength="7" x="930.5" y="888.8592">3</text><text fill="#000000" font-family="sans-serif" font-size="13" lengthAdjust="spacing" textLength="3" x="941.5" y="888.8592">&#160;</text><path d="M733,907.6682 L733,986.6682 L1084,986.6682 L1084,917.6682 L1074,907.6682 L733,907.6682 " fill="#FEFFDD" style="stroke:#181818;stroke-width:0.5;"/><path d="M1074,907.6682 L1074,917.6682 L1084,917.6682 L1074,907.6682 " fill="#FEFFDD" style="stroke:#181818;stroke-width:0.5;"/><text fill="#000000" font-family="sans-serif" font-size="13" lengthAdjust="spacing" textLength="200" x="739" y="926.5652">&#22914;&#26524;&#29992;&#25143;&#36134;&#25143;&#19981;&#23384;&#22312;&#65292;nonce&#21462;0&#65307;</text><line style="stroke:#181818;stroke-width:1.0;stroke-dasharray:1.0,2.0;" x1="734" x2="1083" y1="930.3742" y2="930.3742"/><text fill="#000000" font-family="sans-serif" font-size="13" lengthAdjust="spacing" textLength="330" x="739" y="948.2712">&#22914;&#26524;&#29992;&#25143;&#36134;&#25143;&#23384;&#22312;&#65292;&#20294;&#35813;&#39033;&#30446;&#21512;&#32422;&#19981;&#23384;&#22312;&#65292;&#21017;nonce&#21462;0&#65307;</text><line style="stroke:#181818;stroke-width:1.0;stroke-dasharray:1.0,2.0;" x1="734" x2="1083" y1="956.0802" y2="956.0802"/><text fill="#000000" font-family="sans-serif" font-size="13" lengthAdjust="spacing" textLength="284" x="739" y="973.9772">&#21462;&#29992;&#25143;&#36134;&#25143;&#25968;&#25454;&#20013;&#65292;&#35813;&#39033;&#30446;&#21512;&#32422;&#23545;&#24212;&#30340;nonce&#20540;&#65307;</text><polygon fill="#181818" points="340.5,1011.4923,330.5,1015.4923,340.5,1019.4923,336.5,1015.4923" style="stroke:#181818;stroke-width:1.0;"/><line style="stroke:#181818;stroke-width:1.0;stroke-dasharray:2.0,2.0;" x1="334.5" x2="907.5" y1="1015.4923" y2="1015.4923"/><text fill="#000000" font-family="sans-serif" font-size="13" font-weight="bold" lengthAdjust="spacing" textLength="7" x="346.5" y="1009.6833">4</text><text fill="#000000" font-family="sans-serif" font-size="13" lengthAdjust="spacing" textLength="56" x="357.5" y="1009.6833">: nonce&#20540;</text><line style="stroke:#181818;stroke-width:1.0;" x1="334.5" x2="376.5" y1="1047.1983" y2="1047.1983"/><line style="stroke:#181818;stroke-width:1.0;" x1="376.5" x2="376.5" y1="1047.1983" y2="1060.1983"/><line style="stroke:#181818;stroke-width:1.0;" x1="335.5" x2="376.5" y1="1060.1983" y2="1060.1983"/><polygon fill="#181818" points="345.5,1056.1983,335.5,1060.1983,345.5,1064.1983,341.5,1060.1983" style="stroke:#181818;stroke-width:1.0;"/><text fill="#000000" font-family="sans-serif" font-size="13" font-weight="bold" lengthAdjust="spacing" textLength="7" x="341.5" y="1041.3893">5</text><text fill="#000000" font-family="sans-serif" font-size="13" lengthAdjust="spacing" textLength="123" x="352.5" y="1041.3893">&#29983;&#25104;&#31614;&#21517;&#25968;&#25454;, &#24182;&#23384;&#20648;</text><rect fill="#EEEEEE" height="3" style="stroke:#EEEEEE;stroke-width:1.0;" width="1378" x="0" y="1120.0513"/><line style="stroke:#000000;stroke-width:1.0;" x1="0" x2="1378" y1="1120.0513" y2="1120.0513"/><line style="stroke:#000000;stroke-width:1.0;" x1="0" x2="1378" y1="1123.0513" y2="1123.0513"/><rect fill="#EEEEEE" height="25.706" style="stroke:#000000;stroke-width:2.0;" width="184" x="597" y="1108.1983"/><text fill="#000000" font-family="sans-serif" font-size="13" font-weight="bold" lengthAdjust="spacing" textLength="167" x="603" y="1126.0953">&#31354;&#25237;&#19994;&#21153;&#20351;&#29992; offchain-sign</text><polygon fill="#181818" points="312.5,1163.6103,322.5,1167.6103,312.5,1171.6103,316.5,1167.6103" style="stroke:#181818;stroke-width:1.0;"/><line style="stroke:#181818;stroke-width:1.0;" x1="48" x2="318.5" y1="1167.6103" y2="1167.6103"/><text fill="#000000" font-family="sans-serif" font-size="13" font-weight="bold" lengthAdjust="spacing" textLength="7" x="55" y="1161.8013">1</text><text fill="#000000" font-family="sans-serif" font-size="13" lengthAdjust="spacing" textLength="103" x="66" y="1161.8013">&#33719;&#21462;offchain-sign</text><polygon fill="#181818" points="59,1195.3163,49,1199.3163,59,1203.3163,55,1199.3163" style="stroke:#181818;stroke-width:1.0;"/><line style="stroke:#181818;stroke-width:1.0;stroke-dasharray:2.0,2.0;" x1="53" x2="328.5" y1="1199.3163" y2="1199.3163"/><text fill="#000000" font-family="sans-serif" font-size="13" font-weight="bold" lengthAdjust="spacing" textLength="7" x="65" y="1193.5073">2</text><text fill="#000000" font-family="sans-serif" font-size="13" lengthAdjust="spacing" textLength="3" x="76" y="1193.5073">&#160;</text><polygon fill="#181818" points="739.5,1227.0223,749.5,1231.0223,739.5,1235.0223,743.5,1231.0223" style="stroke:#181818;stroke-width:1.0;"/><line style="stroke:#181818;stroke-width:1.0;" x1="48" x2="745.5" y1="1231.0223" y2="1231.0223"/><text fill="#000000" font-family="sans-serif" font-size="13" font-weight="bold" lengthAdjust="spacing" textLength="7" x="55" y="1225.2133">3</text><text fill="#000000" font-family="sans-serif" font-size="13" lengthAdjust="spacing" textLength="246" x="66" y="1225.2133">&#19994;&#21153;&#20132;&#26131;&#65288;offchain-sign&#25968;&#25454;&#65292;&#19994;&#21153;&#25968;&#25454;&#65289;</text><polygon fill="#181818" points="1128.5,1258.7284,1138.5,1262.7284,1128.5,1266.7284,1132.5,1262.7284" style="stroke:#181818;stroke-width:1.0;"/><line style="stroke:#181818;stroke-width:1.0;" x1="761.5" x2="1134.5" y1="1262.7284" y2="1262.7284"/><text fill="#000000" font-family="sans-serif" font-size="13" font-weight="bold" lengthAdjust="spacing" textLength="7" x="768.5" y="1256.9194">4</text><text fill="#000000" font-family="sans-serif" font-size="13" lengthAdjust="spacing" textLength="349" x="779.5" y="1256.9194">&#39564;&#35777;nonce&#65292;&#24182;&#33258;&#22686;nonce(&#39033;&#30446;&#21512;&#32422;&#22320;&#22336;&#65292; &#29992;&#25143;&#36134;&#25143;, nonce)</text><path d="M917,1275.7284 L917,1407.7284 L1373,1407.7284 L1373,1285.7284 L1363,1275.7284 L917,1275.7284 " fill="#FEFFDD" style="stroke:#181818;stroke-width:0.5;"/><path d="M1363,1275.7284 L1363,1285.7284 L1373,1285.7284 L1363,1275.7284 " fill="#FEFFDD" style="stroke:#181818;stroke-width:0.5;"/><text fill="#000000" font-family="sans-serif" font-size="13" lengthAdjust="spacing" textLength="435" x="923" y="1294.6254">1. &#19981;&#23384;&#22312;&#30340;&#36134;&#25143;&#35201;&#21019;&#24314;&#65307;&#36134;&#25143;&#31354;&#38388;&#19981;&#36275;&#30340;&#35201;&#25193;&#23637;&#65292;fee payer &#30001;&#39033;&#30446;&#26041;&#25351;&#23450;&#65307;</text><text fill="#000000" font-family="sans-serif" font-size="13" lengthAdjust="spacing" textLength="156" x="923" y="1312.3314">&#65288;&#19968;&#33324;&#24773;&#20917;&#19979;&#26159;&#29992;&#25143;&#25903;&#20184;&#65289;</text><text fill="#000000" font-family="sans-serif" font-size="13" lengthAdjust="spacing" textLength="199" x="923" y="1330.0374">2. &#38656;&#35201;&#39564;&#35777;&#39033;&#30446;&#21512;&#32422;&#30340;authority&#65307;</text><line style="stroke:#181818;stroke-width:1.0;" x1="918" x2="1372" y1="1333.8464" y2="1333.8464"/><text fill="#000000" font-family="sans-serif" font-size="13" lengthAdjust="spacing" textLength="417" x="923" y="1351.7434">3. &#23545;&#20110;&#24050;&#32463;&#19981;&#23384;&#22312;&#30340;&#39033;&#30446;&#26041;&#22320;&#22336;&#65292;&#21487;&#20197;&#28165;&#29702;&#20854;&#23545;&#24212;&#30340;nonce,&#24182;&#22797;&#29992;&#31354;&#38388;&#65307;</text><text fill="#000000" font-family="sans-serif" font-size="13" lengthAdjust="spacing" textLength="117" x="923" y="1369.4494">&#23613;&#37327;&#20943;&#23569;&#31354;&#38388;&#28010;&#36153;&#65307;</text><line style="stroke:#181818;stroke-width:1.0;" x1="918" x2="1372" y1="1377.2584" y2="1377.2584"/><text fill="#000000" font-family="sans-serif" font-size="13" lengthAdjust="spacing" textLength="143" x="923" y="1395.1555">4. &#21487;&#20197;&#22312;&#36825;&#37324;&#25910;&#21462;&#36153;&#29992;&#65307;</text><polygon fill="#181818" points="772.5,1432.6705,762.5,1436.6705,772.5,1440.6705,768.5,1436.6705" style="stroke:#181818;stroke-width:1.0;"/><line style="stroke:#181818;stroke-width:1.0;stroke-dasharray:2.0,2.0;" x1="766.5" x2="1144.5" y1="1436.6705" y2="1436.6705"/><text fill="#000000" font-family="sans-serif" font-size="13" font-weight="bold" lengthAdjust="spacing" textLength="7" x="778.5" y="1430.8615">5</text><text fill="#FF0000" font-family="sans-serif" font-size="13" lengthAdjust="spacing" textLength="237" x="789.5" y="1430.8615">&#36820;&#22238;&#39564;&#35777;&#26159;&#21542;&#36890;&#36807;&#65292;&#39564;&#35777;&#22833;&#36133;&#20132;&#26131;&#35201;&#22833;&#36133;.</text><line style="stroke:#181818;stroke-width:1.0;" x1="766.5" x2="808.5" y1="1468.3765" y2="1468.3765"/><line style="stroke:#181818;stroke-width:1.0;" x1="808.5" x2="808.5" y1="1468.3765" y2="1481.3765"/><line style="stroke:#181818;stroke-width:1.0;" x1="767.5" x2="808.5" y1="1481.3765" y2="1481.3765"/><polygon fill="#181818" points="777.5,1477.3765,767.5,1481.3765,777.5,1485.3765,773.5,1481.3765" style="stroke:#181818;stroke-width:1.0;"/><text fill="#000000" font-family="sans-serif" font-size="13" font-weight="bold" lengthAdjust="spacing" textLength="7" x="773.5" y="1462.5675">6</text><text fill="#000000" font-family="sans-serif" font-size="13" lengthAdjust="spacing" textLength="117" x="784.5" y="1462.5675">&#25191;&#34892;&#33258;&#24049;&#30340;&#19994;&#21153;&#36923;&#36753;</text><polygon fill="#181818" points="59,1539.0825,49,1543.0825,59,1547.0825,55,1543.0825" style="stroke:#181818;stroke-width:1.0;"/><line style="stroke:#181818;stroke-width:1.0;stroke-dasharray:2.0,2.0;" x1="53" x2="755.5" y1="1543.0825" y2="1543.0825"/><text fill="#000000" font-family="sans-serif" font-size="13" font-weight="bold" lengthAdjust="spacing" textLength="7" x="65" y="1537.2735">7</text><text fill="#000000" font-family="sans-serif" font-size="13" lengthAdjust="spacing" textLength="3" x="76" y="1537.2735">&#160;</text><rect fill="#EEEEEE" height="3" style="stroke:#EEEEEE;stroke-width:1.0;" width="1378" x="0" y="1572.9355"/><line style="stroke:#000000;stroke-width:1.0;" x1="0" x2="1378" y1="1572.9355" y2="1572.9355"/><line style="stroke:#000000;stroke-width:1.0;" x1="0" x2="1378" y1="1575.9355" y2="1575.9355"/><rect fill="#EEEEEE" height="25.706" style="stroke:#000000;stroke-width:2.0;" width="43" x="667.5" y="1561.0825"/><text fill="#000000" font-family="sans-serif" font-size="13" font-weight="bold" lengthAdjust="spacing" textLength="26" x="673.5" y="1578.9795">&#20854;&#20182;</text><path d="M5,1601.7885 L5,1646.7885 L1190,1646.7885 L1190,1611.7885 L1180,1601.7885 L5,1601.7885 " fill="#FEFFDD" style="stroke:#181818;stroke-width:0.5;"/><path d="M1180,1601.7885 L1180,1611.7885 L1190,1611.7885 L1180,1601.7885 " fill="#FEFFDD" style="stroke:#181818;stroke-width:0.5;"/><text fill="#000000" font-family="sans-serif" font-size="13" lengthAdjust="spacing" textLength="479" x="353.5" y="1620.6855">1, &#29992;&#25143;&#21487;&#20197;&#27880;&#38144;&#33258;&#24049;&#30340;nonce&#36134;&#25143;&#65292;&#33719;&#21462;&#36134;&#25143;&#30340;&#31199;&#37329;&#36153;&#29992;&#65307;&#20294;&#26159;&#20197;&#21518;&#20877;&#29992;&#21017;&#35201;&#21019;&#24314;&#65307;</text><text fill="#000000" font-family="sans-serif" font-size="13" lengthAdjust="spacing" textLength="221" x="353.5" y="1638.3916">2, &#39033;&#30446;&#26041;&#20063;&#21487;&#20197;&#27880;&#38144;&#33258;&#24049;&#30340;&#39033;&#30446;&#26041;&#36134;&#25143;</text><!--SRC=[bLPRJnj757xthnZn52JRRT8-kGbIgxvLggfMwbEao9YbSKDtqNf1vSq4R2zWZ54C8JQNkkBYa6930ECRy6TsPdUV-0izCxDUpzhh02k4FBldE-TyvtnpPX3IujgKX8phMxDGaHKv9eLc9JK-EMSM5ur64I-NoUMyMLa9112AnZH5HJC9IKNH11enFxR8yWR0Y7urGhzFHrKj7ejFHsKDJKYpqfGoxPZYJXAlhLl9r5r7_va6-Pt7g9RDVFgkiyJWuyhVNQTskMcMgcIpEGBllOwZSNL2LQPVZKTZRoHvGiWaXFCvyrDj1A70K5HYues0m7dTR1s6Vllnf-5nOegigS2SmUntDqPZMGI_b9zypotvUfHweda16vUKG7am42lwArvqDpy1WMXwmEcBE4-M0fWdrPTJT4PJm3O-6zKafCYiN2zU87kXObv_faKiBc9z1n-juEmcV70GyinVuv9ARNkz3OqDf1z1M2_XTWk9OWfDgygVKanZ90O8ztlfahdVbIffCweSS7zm8dqQSfo89GM6w8UPH5oM4ebVkByWicvBLZdhD9VppwJnViQl1Fqg10g2nDp4dNUUd4Kf2h01qdvO7xvVoAJxAe8is6ZLzquTnntYNS-i6a3ljQB6jJdMtwuw0antFY46UXX1vBo2qzbXCR1-wjj68FLIHlPsqZgSn-LFE7NWIULHQk4PC1J5KN63ZR-rOuKG-QT9LglYK2eksgbLyxfASaTOhzzricIhXlE7f52tBfemxhvpiM5u7k-8aoKvdUmiE6XQLPQmNvUx-zCix14zZvJ9oTZhQ5mE9U9_o0FQV6Z3G1ErDbxRvEERVNt2TmmV6NZx5Eya8MV4BQoBG_W_-jYMY46u2x9n2cNoyXpQBN3kL0WVlYMxsw8Zex6AJxRmTWMIP208zFLTfnGOwCqWrWKQrschTY0I5zrY_SCzdlsu6OqJmFQvnRKcRXL04jnXijFrrskzs_08wXezR8D776cO9pSulygJ22BSh5CYRolU7IsEI7x0yxF_7bt1YXtyVj6jt1KKmeFtZAX-O4yUJWAjVRBr3gu67XUS1-qHluOuooNF47NFlU4Ij8-X5_Fi8srfisvbZl6_km-LV93x7NtaM7aQHgwIeElS5vrnRBX3y_aRw8Fz_W8ihVevDOEviFGHdsr05fEI1EVz74Go2sVkOKQo6LmjziI84DJDQ2Gj_J-oaCBfIwEn0cE6Co25cj7UwjQCFi_2pgpbLH7fGtXtyeh-G_2uYs_229Hij7BuwhFPNXCfzixRRXtn6eG_88qKNF9mgkxT0a6gp_rLI9JNG0o9Jw_jp1g6lzDr_fLS7iFm7PhMjv0M2mQfMBSVx4mMfZLeaW_i7inlpgBdCMLAKIE_IXDZrcq1btPvRPnXdInQjnaWmr_Y_JFhue0BbdQJBSFFls8knW93jJaeVR9q1BSDgiMhC_UkRIVRriqwy-8vX3tN6oYbqNOkPZqvqaqM72hAfq57r4vFpYjs8Ua6PoWkI3gvs7Psz5bSD8_sxCowMqcOc50PMkfy3gTf_s1AYiA6QC-2o5M3qTppZUaQy401iJd_0m00]--></g></svg>