<?xml version="1.0" encoding="us-ascii" standalone="no"?><svg xmlns="http://www.w3.org/2000/svg" xmlns:xlink="http://www.w3.org/1999/xlink" contentStyleType="text/css" height="504px" preserveAspectRatio="none" style="width:2278px;height:504px;background:#FFFFFF;" version="1.1" viewBox="0 0 2278 504" width="2278px" zoomAndPan="magnify"><defs/><g><text fill="#000000" font-family="sans-serif" font-size="14" font-weight="bold" lengthAdjust="spacing" textLength="112" x="1076" y="24.9659">&#31354;&#25237;&#21512;&#32422;&#36134;&#25143;&#32467;&#26500;</text><!--cluster airdrop-program--><g id="cluster_airdrop-program"><path d="M8.5,46.6699 L126.5,46.6699 A3.75,3.75 0 0 1 129,49.1699 L136,71.7378 L789.5,71.7378 A2.5,2.5 0 0 1 792,74.2378 L792,293.1699 A2.5,2.5 0 0 1 789.5,295.6699 L8.5,295.6699 A2.5,2.5 0 0 1 6,293.1699 L6,49.1699 A2.5,2.5 0 0 1 8.5,46.6699 " fill="none" style="stroke:#000000;stroke-width:1.5;"/><line style="stroke:#000000;stroke-width:1.5;" x1="6" x2="136" y1="71.7378" y2="71.7378"/><text fill="#000000" font-family="sans-serif" font-size="14" font-weight="bold" lengthAdjust="spacing" textLength="117" x="10" y="63.6358">airdrop-program</text></g><!--cluster nonce-verify-program--><g id="cluster_nonce-verify-program"><path d="M915.5,271.6699 L1068.5,271.6699 A3.75,3.75 0 0 1 1071,274.1699 L1078,296.7378 L2268.5,296.7378 A2.5,2.5 0 0 1 2271,299.2378 L2271,495.1699 A2.5,2.5 0 0 1 2268.5,497.6699 L915.5,497.6699 A2.5,2.5 0 0 1 913,495.1699 L913,274.1699 A2.5,2.5 0 0 1 915.5,271.6699 " fill="none" style="stroke:#000000;stroke-width:1.5;"/><line style="stroke:#000000;stroke-width:1.5;" x1="913" x2="1078" y1="296.7378" y2="296.7378"/><text fill="#000000" font-family="sans-serif" font-size="14" font-weight="bold" lengthAdjust="spacing" textLength="152" x="917" y="288.6358">nonce-verify-program</text></g><!--cluster SPL-program--><g id="cluster_SPL-program"><path d="M1000.5,52.6699 L1092.5,52.6699 A3.75,3.75 0 0 1 1095,55.1699 L1102,77.7378 L1242.5,77.7378 A2.5,2.5 0 0 1 1245,80.2378 L1245,172.1699 A2.5,2.5 0 0 1 1242.5,174.6699 L1000.5,174.6699 A2.5,2.5 0 0 1 998,172.1699 L998,55.1699 A2.5,2.5 0 0 1 1000.5,52.6699 " fill="none" style="stroke:#000000;stroke-width:1.5;"/><line style="stroke:#000000;stroke-width:1.5;" x1="998" x2="1102" y1="77.7378" y2="77.7378"/><text fill="#000000" font-family="sans-serif" font-size="14" font-weight="bold" lengthAdjust="spacing" textLength="91" x="1002" y="69.6358">SPL-program</text></g><!--class AirdropProjectAccount--><g id="elem_AirdropProjectAccount"><rect codeLine="7" fill="#F1F1F1" height="126.6158" id="AirdropProjectAccount" rx="2.5" ry="2.5" style="stroke:#181818;stroke-width:0.5;" width="334" x="22" y="135.3599"/><ellipse cx="109.25" cy="158.0659" fill="#F1F1F1" rx="11" ry="11" style="stroke:#181818;stroke-width:1.0;"/><path d="M108.7344,158.6284 Q106.875,157.9253 106.2188,157.1597 Q105.5781,156.3784 105.5781,155.0659 Q105.5781,153.3784 106.6563,152.4097 Q107.7344,151.4409 109.6094,151.4409 Q110.4688,151.4409 111.3125,151.644 Q112.1719,151.8315 113.0156,152.2222 L113.0156,154.6128 Q112.2344,154.0503 111.4063,153.769 Q110.5938,153.4722 109.7969,153.4722 Q108.9219,153.4722 108.4375,153.8315 Q107.9688,154.1909 107.9688,154.8472 Q107.9688,155.3628 108.3125,155.7065 Q108.6563,156.0347 109.75,156.4409 L110.8125,156.8472 Q112.2969,157.394 113,158.3003 Q113.7188,159.2065 113.7188,160.5815 Q113.7188,162.4565 112.6094,163.3784 Q111.5,164.3003 109.25,164.3003 Q108.3281,164.3003 107.4063,164.0815 Q106.4844,163.8628 105.625,163.4409 L105.625,160.9097 Q106.5938,161.5972 107.5156,161.9409 Q108.4375,162.2847 109.3281,162.2847 Q110.2344,162.2847 110.7344,161.8784 Q111.2344,161.4565 111.2344,160.7222 Q111.2344,160.1597 110.8906,159.7534 Q110.5625,159.3315 109.9375,159.0815 L108.7344,158.6284 Z " fill="#000000"/><text fill="#000000" font-family="sans-serif" font-size="12" font-style="italic" lengthAdjust="spacing" textLength="34" x="188.25" y="153.188">&#171;PDA&#187;</text><text fill="#000000" font-family="sans-serif" font-size="14" lengthAdjust="spacing" textLength="151" x="129.75" y="171.6699">AirdropProjectAccount</text><line style="stroke:#181818;stroke-width:0.5;" x1="23" x2="355" y1="180.7719" y2="180.7719"/><text fill="#006400" font-family="sans-serif" font-size="14" font-weight="bold" lengthAdjust="spacing" textLength="128" x="28" y="199.7379">// &#20195;&#34920;&#19968;&#20010;&#31354;&#25237;&#39033;&#30446;</text><line style="stroke:#181818;stroke-width:1.0;" x1="23" x2="355" y1="207.8398" y2="207.8398"/><line style="stroke:#181818;stroke-width:1.0;" x1="23" x2="355" y1="209.8398" y2="209.8398"/><text fill="#000000" font-family="sans-serif" font-size="14" lengthAdjust="spacing" textLength="103" x="28" y="226.8058">admin: Pubkey,</text><text fill="#006400" font-family="sans-serif" font-size="14" lengthAdjust="spacing" textLength="112" x="135" y="226.8058">// &#31354;&#25237;&#31649;&#29702;&#21592;&#36134;&#25143;</text><line style="stroke:#181818;stroke-width:1.0;stroke-dasharray:1.0,2.0;" x1="23" x2="355" y1="234.9078" y2="234.9078"/><text fill="#000000" font-family="sans-serif" font-size="14" lengthAdjust="spacing" textLength="73" x="28" y="253.8737">id: Pubkey,</text><text fill="#006400" font-family="sans-serif" font-size="14" lengthAdjust="spacing" textLength="245" x="105" y="253.8737">//AirdropProjectAccount &#30340; pda seed</text></g><!--class AirdropMintAccountAuthority--><g id="elem_AirdropMintAccountAuthority"><rect codeLine="16" fill="#F1F1F1" height="80.4799" id="AirdropMintAccountAuthority" rx="2.5" ry="2.5" style="stroke:#181818;stroke-width:0.5;" width="252" x="499" y="84.4299"/><ellipse cx="523.9" cy="107.1359" fill="#F1F1F1" rx="11" ry="11" style="stroke:#181818;stroke-width:1.0;"/><path d="M523.3844,107.6984 Q521.525,106.9953 520.8688,106.2297 Q520.2281,105.4484 520.2281,104.1359 Q520.2281,102.4484 521.3063,101.4797 Q522.3844,100.5109 524.2594,100.5109 Q525.1188,100.5109 525.9625,100.714 Q526.8219,100.9015 527.6656,101.2922 L527.6656,103.6828 Q526.8844,103.1203 526.0563,102.839 Q525.2438,102.5422 524.4469,102.5422 Q523.5719,102.5422 523.0875,102.9015 Q522.6188,103.2609 522.6188,103.9172 Q522.6188,104.4328 522.9625,104.7765 Q523.3063,105.1047 524.4,105.5109 L525.4625,105.9172 Q526.9469,106.464 527.65,107.3703 Q528.3688,108.2765 528.3688,109.6515 Q528.3688,111.5265 527.2594,112.4484 Q526.15,113.3703 523.9,113.3703 Q522.9781,113.3703 522.0563,113.1515 Q521.1344,112.9328 520.275,112.5109 L520.275,109.9797 Q521.2438,110.6672 522.1656,111.0109 Q523.0875,111.3547 523.9781,111.3547 Q524.8844,111.3547 525.3844,110.9484 Q525.8844,110.5265 525.8844,109.7922 Q525.8844,109.2297 525.5406,108.8234 Q525.2125,108.4015 524.5875,108.1515 L523.3844,107.6984 Z " fill="#000000"/><text fill="#000000" font-family="sans-serif" font-size="12" font-style="italic" lengthAdjust="spacing" textLength="34" x="622.1" y="102.258">&#171;PDA&#187;</text><text fill="#000000" font-family="sans-serif" font-size="14" lengthAdjust="spacing" textLength="198" x="540.1" y="120.7399">AirdropMintAccountAuthority</text><line style="stroke:#181818;stroke-width:0.5;" x1="500" x2="750" y1="129.8419" y2="129.8419"/><text fill="#006400" font-family="sans-serif" font-size="14" font-weight="bold" lengthAdjust="spacing" textLength="240" x="505" y="148.8079">// &#20195;&#34920;&#31354;&#25237;mint&#21512;&#32422;&#30340;authority&#36134;&#25143;</text><line style="stroke:#181818;stroke-width:1.0;" x1="500" x2="750" y1="156.9098" y2="156.9098"/><line style="stroke:#181818;stroke-width:1.0;" x1="500" x2="750" y1="158.9098" y2="158.9098"/></g><!--class AirdropNonceBusinessAccountAuthority--><g id="elem_AirdropNonceBusinessAccountAuthority"><rect codeLine="23" fill="#F1F1F1" height="80.4799" id="AirdropNonceBusinessAccountAuthority" rx="2.5" ry="2.5" style="stroke:#181818;stroke-width:0.5;" width="302" x="474" y="199.4299"/><ellipse cx="489" cy="222.1359" fill="#F1F1F1" rx="11" ry="11" style="stroke:#181818;stroke-width:1.0;"/><path d="M488.4844,222.6984 Q486.625,221.9953 485.9688,221.2297 Q485.3281,220.4484 485.3281,219.1359 Q485.3281,217.4484 486.4063,216.4797 Q487.4844,215.5109 489.3594,215.5109 Q490.2188,215.5109 491.0625,215.714 Q491.9219,215.9015 492.7656,216.2922 L492.7656,218.6828 Q491.9844,218.1203 491.1563,217.839 Q490.3438,217.5422 489.5469,217.5422 Q488.6719,217.5422 488.1875,217.9015 Q487.7188,218.2609 487.7188,218.9172 Q487.7188,219.4328 488.0625,219.7765 Q488.4063,220.1047 489.5,220.5109 L490.5625,220.9172 Q492.0469,221.464 492.75,222.3703 Q493.4688,223.2765 493.4688,224.6515 Q493.4688,226.5265 492.3594,227.4484 Q491.25,228.3703 489,228.3703 Q488.0781,228.3703 487.1563,228.1515 Q486.2344,227.9328 485.375,227.5109 L485.375,224.9797 Q486.3438,225.6672 487.2656,226.0109 Q488.1875,226.3547 489.0781,226.3547 Q489.9844,226.3547 490.4844,225.9484 Q490.9844,225.5265 490.9844,224.7922 Q490.9844,224.2297 490.6406,223.8234 Q490.3125,223.4015 489.6875,223.1515 L488.4844,222.6984 Z " fill="#000000"/><text fill="#000000" font-family="sans-serif" font-size="12" font-style="italic" lengthAdjust="spacing" textLength="34" x="621" y="217.258">&#171;PDA&#187;</text><text fill="#000000" font-family="sans-serif" font-size="14" lengthAdjust="spacing" textLength="270" x="503" y="235.7399">AirdropNonceBusinessAccountAuthority</text><line style="stroke:#181818;stroke-width:0.5;" x1="475" x2="775" y1="244.8419" y2="244.8419"/><text fill="#006400" font-family="sans-serif" font-size="14" font-weight="bold" lengthAdjust="spacing" textLength="249" x="480" y="263.8079">// &#20195;&#34920;&#31354;&#25237;nonce&#21512;&#32422;&#30340;authority&#36134;&#25143;</text><line style="stroke:#181818;stroke-width:1.0;" x1="475" x2="775" y1="271.9098" y2="271.9098"/><line style="stroke:#181818;stroke-width:1.0;" x1="475" x2="775" y1="273.9098" y2="273.9098"/></g><!--class NonceProjectAccount--><g id="elem_NonceProjectAccount"><rect codeLine="32" fill="#F1F1F1" height="172.7516" id="NonceProjectAccount" rx="2.5" ry="2.5" style="stroke:#181818;stroke-width:0.5;" width="385" x="929" y="309.2899"/><ellipse cx="1045.75" cy="331.9959" fill="#F1F1F1" rx="11" ry="11" style="stroke:#181818;stroke-width:1.0;"/><path d="M1045.2344,332.5584 Q1043.375,331.8553 1042.7188,331.0897 Q1042.0781,330.3084 1042.0781,328.9959 Q1042.0781,327.3084 1043.1563,326.3397 Q1044.2344,325.3709 1046.1094,325.3709 Q1046.9688,325.3709 1047.8125,325.574 Q1048.6719,325.7615 1049.5156,326.1522 L1049.5156,328.5428 Q1048.7344,327.9803 1047.9063,327.699 Q1047.0938,327.4022 1046.2969,327.4022 Q1045.4219,327.4022 1044.9375,327.7615 Q1044.4688,328.1209 1044.4688,328.7772 Q1044.4688,329.2928 1044.8125,329.6365 Q1045.1563,329.9647 1046.25,330.3709 L1047.3125,330.7772 Q1048.7969,331.324 1049.5,332.2303 Q1050.2188,333.1365 1050.2188,334.5115 Q1050.2188,336.3865 1049.1094,337.3084 Q1048,338.2303 1045.75,338.2303 Q1044.8281,338.2303 1043.9063,338.0115 Q1042.9844,337.7928 1042.125,337.3709 L1042.125,334.8397 Q1043.0938,335.5272 1044.0156,335.8709 Q1044.9375,336.2147 1045.8281,336.2147 Q1046.7344,336.2147 1047.2344,335.8084 Q1047.7344,335.3865 1047.7344,334.6522 Q1047.7344,334.0897 1047.3906,333.6834 Q1047.0625,333.2615 1046.4375,333.0115 L1045.2344,332.5584 Z " fill="#000000"/><text fill="#000000" font-family="sans-serif" font-size="12" font-style="italic" lengthAdjust="spacing" textLength="34" x="1120.75" y="327.118">&#171;PDA&#187;</text><text fill="#000000" font-family="sans-serif" font-size="14" lengthAdjust="spacing" textLength="143" x="1066.25" y="345.5999">NonceProjectAccount</text><line style="stroke:#181818;stroke-width:0.5;" x1="930" x2="1313" y1="354.7019" y2="354.7019"/><text fill="#006400" font-family="sans-serif" font-size="14" font-weight="bold" lengthAdjust="spacing" textLength="142" x="935" y="373.6679">// &#20195;&#34920;&#19968;&#20010;nonce&#39033;&#30446;</text><line style="stroke:#181818;stroke-width:1.0;" x1="930" x2="1313" y1="381.7698" y2="381.7698"/><line style="stroke:#181818;stroke-width:1.0;" x1="930" x2="1313" y1="383.7698" y2="383.7698"/><text fill="#000000" font-family="sans-serif" font-size="14" lengthAdjust="spacing" textLength="103" x="935" y="400.7358">admin: Pubkey,</text><text fill="#006400" font-family="sans-serif" font-size="14" lengthAdjust="spacing" textLength="266" x="1042" y="400.7358">// &#31649;&#29702;&#36134;&#25143;&#65292;&#25552;&#27454;&#31649;&#29702;&#65292;&#27880;&#20876;&#31649;&#29702;&#65288;&#21487;&#36873;&#65289;</text><line style="stroke:#181818;stroke-width:1.0;stroke-dasharray:1.0,2.0;" x1="930" x2="1313" y1="408.8378" y2="408.8378"/><text fill="#000000" font-family="sans-serif" font-size="14" lengthAdjust="spacing" textLength="73" x="935" y="427.8037">id: Pubkey,</text><text fill="#006400" font-family="sans-serif" font-size="14" lengthAdjust="spacing" textLength="237" x="1012" y="427.8037">//NonceProjectAccount &#30340; pda seed</text><line style="stroke:#181818;stroke-width:1.0;" x1="930" x2="1313" y1="435.9057" y2="435.9057"/><text fill="#006400" font-family="sans-serif" font-size="14" font-weight="bold" lengthAdjust="spacing" textLength="156" x="935" y="454.8716">// PDA &#36134;&#25143;&#65292; seed = id</text><text fill="#000000" font-family="sans-serif" font-size="14" lengthAdjust="spacing" textLength="93" x="935" y="473.9395">vault: Pubkey,</text><text fill="#006400" font-family="sans-serif" font-size="14" lengthAdjust="spacing" textLength="147" x="1032" y="473.9395">// &#29992;&#20110;&#23384;&#25918;fee&#30340;&#36134;&#25143;&#65292;</text></g><!--class BusinessNonceProjectAccount--><g id="elem_BusinessNonceProjectAccount"><rect codeLine="43" fill="#F1F1F1" height="126.6158" id="BusinessNonceProjectAccount" rx="2.5" ry="2.5" style="stroke:#181818;stroke-width:0.5;" width="388" x="1440" y="318.6699"/><ellipse cx="1528.25" cy="341.3759" fill="#F1F1F1" rx="11" ry="11" style="stroke:#181818;stroke-width:1.0;"/><path d="M1527.7344,341.9384 Q1525.875,341.2353 1525.2188,340.4697 Q1524.5781,339.6884 1524.5781,338.3759 Q1524.5781,336.6884 1525.6563,335.7197 Q1526.7344,334.7509 1528.6094,334.7509 Q1529.4688,334.7509 1530.3125,334.954 Q1531.1719,335.1415 1532.0156,335.5322 L1532.0156,337.9228 Q1531.2344,337.3603 1530.4063,337.079 Q1529.5938,336.7822 1528.7969,336.7822 Q1527.9219,336.7822 1527.4375,337.1415 Q1526.9688,337.5009 1526.9688,338.1572 Q1526.9688,338.6728 1527.3125,339.0165 Q1527.6563,339.3447 1528.75,339.7509 L1529.8125,340.1572 Q1531.2969,340.704 1532,341.6103 Q1532.7188,342.5165 1532.7188,343.8915 Q1532.7188,345.7665 1531.6094,346.6884 Q1530.5,347.6103 1528.25,347.6103 Q1527.3281,347.6103 1526.4063,347.3915 Q1525.4844,347.1728 1524.625,346.7509 L1524.625,344.2197 Q1525.5938,344.9072 1526.5156,345.2509 Q1527.4375,345.5947 1528.3281,345.5947 Q1529.2344,345.5947 1529.7344,345.1884 Q1530.2344,344.7665 1530.2344,344.0322 Q1530.2344,343.4697 1529.8906,343.0634 Q1529.5625,342.6415 1528.9375,342.3915 L1527.7344,341.9384 Z " fill="#000000"/><text fill="#000000" font-family="sans-serif" font-size="12" font-style="italic" lengthAdjust="spacing" textLength="34" x="1633.25" y="336.498">&#171;PDA&#187;</text><text fill="#000000" font-family="sans-serif" font-size="14" lengthAdjust="spacing" textLength="203" x="1548.75" y="354.9799">BusinessNonceProjectAccount</text><line style="stroke:#181818;stroke-width:0.5;" x1="1441" x2="1827" y1="364.0819" y2="364.0819"/><text fill="#006400" font-family="sans-serif" font-size="14" font-weight="bold" lengthAdjust="spacing" textLength="320" x="1446" y="383.0479">// &#20195;&#34920;&#19968;&#20010;nonce &#30340; business &#39033;&#30446;, &#30001;&#39033;&#30446;&#26041;&#21019;&#24314;</text><line style="stroke:#181818;stroke-width:1.0;" x1="1441" x2="1827" y1="391.1498" y2="391.1498"/><line style="stroke:#181818;stroke-width:1.0;" x1="1441" x2="1827" y1="393.1498" y2="393.1498"/><text fill="#000000" font-family="sans-serif" font-size="14" lengthAdjust="spacing" textLength="73" x="1446" y="410.1158">id: Pubkey,</text><text fill="#006400" font-family="sans-serif" font-size="14" lengthAdjust="spacing" textLength="237" x="1523" y="410.1158">//NonceProjectAccount &#30340; pda seed</text><line style="stroke:#181818;stroke-width:1.0;stroke-dasharray:1.0,2.0;" x1="1441" x2="1827" y1="418.2178" y2="418.2178"/><text fill="#000000" font-family="sans-serif" font-size="14" lengthAdjust="spacing" textLength="121" x="1446" y="437.1837">authority: Pubkey,</text><text fill="#006400" font-family="sans-serif" font-size="14" lengthAdjust="spacing" textLength="251" x="1571" y="437.1837">// &#20462;&#25913;&#23427;&#25152;&#23646;&#30340;&#29992;&#25143;nonce&#26102;&#65292;&#38656;&#35201;&#31614;&#21517;</text></g><!--class UserBusinessNonceStateAccount--><g id="elem_UserBusinessNonceStateAccount"><rect codeLine="53" fill="#F1F1F1" height="126.6158" id="UserBusinessNonceStateAccount" rx="2.5" ry="2.5" style="stroke:#181818;stroke-width:0.5;" width="301" x="1954" y="318.3599"/><ellipse cx="1990.15" cy="341.0659" fill="#F1F1F1" rx="11" ry="11" style="stroke:#181818;stroke-width:1.0;"/><path d="M1989.6344,341.6284 Q1987.775,340.9253 1987.1188,340.1597 Q1986.4781,339.3784 1986.4781,338.0659 Q1986.4781,336.3784 1987.5563,335.4097 Q1988.6344,334.4409 1990.5094,334.4409 Q1991.3688,334.4409 1992.2125,334.644 Q1993.0719,334.8315 1993.9156,335.2222 L1993.9156,337.6128 Q1993.1344,337.0503 1992.3063,336.769 Q1991.4938,336.4722 1990.6969,336.4722 Q1989.8219,336.4722 1989.3375,336.8315 Q1988.8688,337.1909 1988.8688,337.8472 Q1988.8688,338.3628 1989.2125,338.7065 Q1989.5563,339.0347 1990.65,339.4409 L1991.7125,339.8472 Q1993.1969,340.394 1993.9,341.3003 Q1994.6188,342.2065 1994.6188,343.5815 Q1994.6188,345.4565 1993.5094,346.3784 Q1992.4,347.3003 1990.15,347.3003 Q1989.2281,347.3003 1988.3063,347.0815 Q1987.3844,346.8628 1986.525,346.4409 L1986.525,343.9097 Q1987.4938,344.5972 1988.4156,344.9409 Q1989.3375,345.2847 1990.2281,345.2847 Q1991.1344,345.2847 1991.6344,344.8784 Q1992.1344,344.4565 1992.1344,343.7222 Q1992.1344,343.1597 1991.7906,342.7534 Q1991.4625,342.3315 1990.8375,342.0815 L1989.6344,341.6284 Z " fill="#000000"/><text fill="#000000" font-family="sans-serif" font-size="12" font-style="italic" lengthAdjust="spacing" textLength="34" x="2102.85" y="336.188">&#171;PDA&#187;</text><text fill="#000000" font-family="sans-serif" font-size="14" lengthAdjust="spacing" textLength="222" x="2008.85" y="354.6699">UserBusinessNonceStateAccount</text><line style="stroke:#181818;stroke-width:0.5;" x1="1955" x2="2254" y1="363.7719" y2="363.7719"/><text fill="#006400" font-family="sans-serif" font-size="14" font-weight="bold" lengthAdjust="spacing" textLength="289" x="1960" y="382.7379">// &#20195;&#34920;&#19968;&#20010;&#29992;&#25143;&#22312;&#19968;&#20010;project&#20013;&#30340;nonce&#29366;&#24577;</text><line style="stroke:#181818;stroke-width:1.0;" x1="1955" x2="2254" y1="390.8398" y2="390.8398"/><line style="stroke:#181818;stroke-width:1.0;" x1="1955" x2="2254" y1="392.8398" y2="392.8398"/><text fill="#000000" font-family="sans-serif" font-size="14" lengthAdjust="spacing" textLength="78" x="1960" y="409.8058">nonce: u64,</text><text fill="#006400" font-family="sans-serif" font-size="14" lengthAdjust="spacing" textLength="69" x="2042" y="409.8058">// nonce&#20540;</text><line style="stroke:#181818;stroke-width:1.0;stroke-dasharray:1.0,2.0;" x1="1955" x2="2254" y1="417.9078" y2="417.9078"/><text fill="#000000" font-family="sans-serif" font-size="14" lengthAdjust="spacing" textLength="90" x="1960" y="436.8737">user: Pubkey,</text><text fill="#006400" font-family="sans-serif" font-size="14" lengthAdjust="spacing" textLength="70" x="2054" y="436.8737">// &#29992;&#25143;&#36134;&#25143;</text></g><!--class AnyMintAccount--><g id="elem_AnyMintAccount"><rect codeLine="66" fill="#F1F1F1" height="67.0679" id="AnyMintAccount" rx="2.5" ry="2.5" style="stroke:#181818;stroke-width:0.5;" width="215" x="1014" y="91.1399"/><ellipse cx="1062.25" cy="107.1399" fill="#F1F1F1" rx="11" ry="11" style="stroke:#181818;stroke-width:1.0;"/><path d="M1061.7344,107.7024 Q1059.875,106.9993 1059.2188,106.2336 Q1058.5781,105.4524 1058.5781,104.1399 Q1058.5781,102.4524 1059.6563,101.4836 Q1060.7344,100.5149 1062.6094,100.5149 Q1063.4688,100.5149 1064.3125,100.718 Q1065.1719,100.9055 1066.0156,101.2961 L1066.0156,103.6868 Q1065.2344,103.1243 1064.4063,102.843 Q1063.5938,102.5461 1062.7969,102.5461 Q1061.9219,102.5461 1061.4375,102.9055 Q1060.9688,103.2649 1060.9688,103.9211 Q1060.9688,104.4368 1061.3125,104.7805 Q1061.6563,105.1086 1062.75,105.5149 L1063.8125,105.9211 Q1065.2969,106.468 1066,107.3743 Q1066.7188,108.2805 1066.7188,109.6555 Q1066.7188,111.5305 1065.6094,112.4524 Q1064.5,113.3743 1062.25,113.3743 Q1061.3281,113.3743 1060.4063,113.1555 Q1059.4844,112.9368 1058.625,112.5149 L1058.625,109.9836 Q1059.5938,110.6711 1060.5156,111.0149 Q1061.4375,111.3586 1062.3281,111.3586 Q1063.2344,111.3586 1063.7344,110.9524 Q1064.2344,110.5305 1064.2344,109.7961 Q1064.2344,109.2336 1063.8906,108.8274 Q1063.5625,108.4055 1062.9375,108.1555 L1061.7344,107.7024 Z " fill="#000000"/><text fill="#000000" font-family="sans-serif" font-size="14" lengthAdjust="spacing" textLength="110" x="1082.75" y="112.5719">AnyMintAccount</text><line style="stroke:#181818;stroke-width:0.5;" x1="1015" x2="1228" y1="123.1399" y2="123.1399"/><text fill="#006400" font-family="sans-serif" font-size="14" font-weight="bold" lengthAdjust="spacing" textLength="203" x="1020" y="142.1058">// &#20195;&#34920;&#19968;&#20010;&#29992;&#20110;&#31354;&#25237;&#30340;mint&#21512;&#32422;</text><line style="stroke:#181818;stroke-width:1.0;" x1="1015" x2="1228" y1="150.2078" y2="150.2078"/><line style="stroke:#181818;stroke-width:1.0;" x1="1015" x2="1228" y1="152.2078" y2="152.2078"/></g><!--link AirdropProjectAccount to AirdropMintAccountAuthority--><g id="link_AirdropProjectAccount_AirdropMintAccountAuthority"><path codeLine="20" d="M366.0979,168.6401 C413.4579,160.5701 448.4553,154.5981 492.9253,147.0181 " fill="none" id="AirdropProjectAccount-AirdropMintAccountAuthority" style="stroke:#181818;stroke-width:1.0;"/><path d="M360.6951,178.1399 A9,9 0 0 0 357.8538 161.4658" fill="none" style="stroke:#181818;stroke-width:1.5;"/><polygon fill="#181818" points="498.84,146.0099,489.2958,143.579,493.9111,146.85,490.6401,151.4653,498.84,146.0099" style="stroke:#181818;stroke-width:1.0;"/><text fill="#000000" font-family="sans-serif" font-size="13" lengthAdjust="spacing" textLength="56" x="387" y="153.5669">PDA seed</text></g><!--link AirdropProjectAccount to AirdropNonceBusinessAccountAuthority--><g id="link_AirdropProjectAccount_AirdropNonceBusinessAccountAuthority"><path codeLine="27" d="M366.1959,215.318 C404.8259,218.958 429.7966,221.3255 467.6866,224.9055 " fill="none" id="AirdropProjectAccount-AirdropNonceBusinessAccountAuthority" style="stroke:#181818;stroke-width:1.0;"/><path d="M358.5112,223.0886 A9,9 0 0 0 360.098 206.2487" fill="none" style="stroke:#181818;stroke-width:1.5;"/><polygon fill="#181818" points="473.66,225.4699,465.0762,220.641,468.6822,224.9996,464.3236,228.6056,473.66,225.4699" style="stroke:#181818;stroke-width:1.0;"/><text fill="#000000" font-family="sans-serif" font-size="13" lengthAdjust="spacing" textLength="56" x="387" y="214.5669">PDA seed</text></g><!--link NonceProjectAccount to BusinessNonceProjectAccount--><g id="link_NonceProjectAccount_BusinessNonceProjectAccount"><path codeLine="50" d="M1324.4062,390.1344 C1362.8662,389.0744 1387.3722,388.404 1426.1222,387.344 " fill="none" id="NonceProjectAccount-BusinessNonceProjectAccount" style="stroke:#181818;stroke-width:1.0;"/><path d="M1317.72,398.7791 A9,9 0 0 0 1317.254 381.8711" fill="none" style="stroke:#181818;stroke-width:1.5;"/><polygon fill="#181818" points="1432.12,387.1799,1423.014,383.4275,1427.1219,387.3166,1423.2327,391.4245,1432.12,387.1799" style="stroke:#181818;stroke-width:1.0;"/><text fill="#000000" font-family="sans-serif" font-size="13" lengthAdjust="spacing" textLength="56" x="1345" y="383.5669">PDA seed</text></g><!--link BusinessNonceProjectAccount to UserBusinessNonceStateAccount--><g id="link_BusinessNonceProjectAccount_UserBusinessNonceStateAccount"><path codeLine="60" d="M1845.72,381.6699 C1885.34,381.6699 1910.26,381.6699 1947.82,381.6699 " fill="none" id="BusinessNonceProjectAccount-UserBusinessNonceStateAccount" style="stroke:#181818;stroke-width:1.0;"/><path d="M1838.7982,390.1271 A9,9 0 0 0 1838.7982 373.2127" fill="none" style="stroke:#181818;stroke-width:1.5;"/><polygon fill="#181818" points="1953.82,381.6699,1944.82,377.6699,1948.82,381.6699,1944.82,385.6699,1953.82,381.6699" style="stroke:#181818;stroke-width:1.0;"/><text fill="#000000" font-family="sans-serif" font-size="13" lengthAdjust="spacing" textLength="56" x="1867" y="377.5669">PDA seed</text></g><!--link AirdropNonceBusinessAccountAuthority to BusinessNonceProjectAccount--><g id="link_AirdropNonceBusinessAccountAuthority_BusinessNonceProjectAccount"><path codeLine="63" d="M776.43,226.4599 C919.63,219.4899 1138.68,223.6299 1314,291.6699 C1360.33,309.6499 1370.24,322.4399 1402,360.6699 C1424.74,388.0399 1397.42,431.6699 1433,431.6699 " fill="none" id="AirdropNonceBusinessAccountAuthority-to-BusinessNonceProjectAccount" style="stroke:#0000FF;stroke-width:1.0;"/><polygon fill="#0000FF" points="1439,431.6699,1430,427.6699,1434,431.6699,1430,435.6699,1439,431.6699" style="stroke:#0000FF;stroke-width:1.0;"/><text fill="#000000" font-family="sans-serif" font-size="13" lengthAdjust="spacing" textLength="96" x="1073.5" y="220.5669">nonce authority</text></g><!--link AirdropMintAccountAuthority to AnyMintAccount--><g id="link_AirdropMintAccountAuthority_AnyMintAccount"><path codeLine="71" d="M751.42,124.6699 C832.4,124.6699 930.62,124.6699 1007.64,124.6699 " fill="none" id="AirdropMintAccountAuthority-to-AnyMintAccount" style="stroke:#0000FF;stroke-width:1.0;"/><polygon fill="#0000FF" points="1013.64,124.6699,1004.64,120.6699,1008.64,124.6699,1004.64,128.6699,1013.64,124.6699" style="stroke:#0000FF;stroke-width:1.0;"/><text fill="#000000" font-family="sans-serif" font-size="13" lengthAdjust="spacing" textLength="87" x="809" y="120.5669">mint authority</text></g><!--SRC=[hLLFQnf15B_xAHxfgP1jBgK7CS86ePUs2A6dqiDc7SrMiolZR41Am5096jB6Kjk690Ia8BPKIsX9_OVzCkwkdl8LEZkpwghh9fBCGMPsV6z-Vzwy0I0AII6mlhVDmyz6gM2rguC_LRFmr-fyCY_oWG102iK940smajWc45CmaecYgVPMMfAJKWB1YgJW6DRIGXfh2IpjhC1RUniWGx0k4n3vTXHhRsYmACkQhf9GA1eHms7wLs0Z96if3GSZ4au-nGYfuT1MU6qD-frlWqgjtyprcpyup66bPPqrdAXrEfof5DjHr214zQqaogxEvwF9U0AhKR5A1yR74qxL2Nz4XpDLOhvfFEc0TPg7T4o2348nbcUF_Ne9yLnHHs6YJhOrh92i8yUjrE0qA5l2BQD7IwCyKvp6wd0iti0V2aBO3nbGCI8Yv-N5veMcocX3poWgocGMq88bUAbsllicvWlIpT1EELNR38wmYx0IpxeBt2K4Ipvp-39-ykfc1zsbk5bPSvckkqVcSSdysUCVxUNlcd5mD5eMZEDVmrpnkbjSklgzoCxLFe10XpztM_8nMXOAw_Hm9sXNqbFa1iBbMh_zmQYVcELU724AOfBEAGwtIoFtVTo2PUrYpBUSnC3DMwN0BldK_D8o2cT6fprlwFsexB9jV57yHUl_QvZbbj5uPnPpnkK5pKbbfA8nEkRNAohUy3mtgEvRzPvHUk-wP5wGs1Np4tPHxtYPGNWgRfD81Dt13ix2E7UMQGwZtwnJXeoRTNXbvlRdZM2RGT2VFFOMZBUZN7TUSProkB52AIXNv-9A-Wd65FLNPxPRmUsQd22yUh2Hqj5hVyk2GSdL5tcLZxzCTSRDwBC53L5KiwwNP4aRwPrstkdJ_EIDyshyUnFgdW-NY_0CeY3OcTsy0ly1]--></g></svg>